<svg xmlns="http://www.w3.org/2000/svg" viewBox="0 0 152.95 112.89"><defs><style>.cls-1{fill:#fff;}</style></defs><title>CNs_logo_white_name</title><g id="Layer_2" data-name="Layer 2"><g id="Layer_1-2" data-name="Layer 1"><path class="cls-1" d="M27.15,111.86a6.33,6.33,0,0,1-2.52-2.4,7,7,0,0,1,0-6.93,6.37,6.37,0,0,1,2.52-2.39,8,8,0,0,1,6.67-.27,6,6,0,0,1,2.3,1.71l-1.93,1.78a4.17,4.17,0,0,0-3.27-1.52,4.27,4.27,0,0,0-2.16.53,3.8,3.8,0,0,0-1.48,1.47,4.67,4.67,0,0,0,0,4.32,3.8,3.8,0,0,0,1.48,1.47,4.27,4.27,0,0,0,2.16.53,4.13,4.13,0,0,0,3.27-1.54l1.93,1.78a5.92,5.92,0,0,1-2.31,1.73,7.53,7.53,0,0,1-3.06.6A7.43,7.43,0,0,1,27.15,111.86Z"/><path class="cls-1" d="M37.94,98.72h2.9V112.5h-2.9Z"/><path class="cls-1" d="M45.45,112a5.08,5.08,0,0,1,0-9,6,6,0,0,1,2.84-.66,5.93,5.93,0,0,1,2.82.66,4.92,4.92,0,0,1,2,1.83,5.32,5.32,0,0,1,0,5.31,4.92,4.92,0,0,1-2,1.83,5.93,5.93,0,0,1-2.82.66A6,6,0,0,1,45.45,112Zm4.67-2.47a3.21,3.21,0,0,0,0-4,2.62,2.62,0,0,0-3.67,0,3.15,3.15,0,0,0,0,4,2.62,2.62,0,0,0,3.67,0Z"/><path class="cls-1" d="M65.77,102.51v10H63v-1.19a3.76,3.76,0,0,1-1.37,1,4.77,4.77,0,0,1-4.85-.79,4.52,4.52,0,0,1-1.15-3.36v-5.65h2.89v5.22c0,1.61.68,2.41,2,2.41a2.15,2.15,0,0,0,1.67-.68,2.85,2.85,0,0,0,.63-2v-4.94Z"/><path class="cls-1" d="M78.65,98.72V112.5H75.88v-1.15a3.82,3.82,0,0,1-3.12,1.3A5.25,5.25,0,0,1,70.2,112a4.49,4.49,0,0,1-1.79-1.8,6,6,0,0,1,0-5.43A4.49,4.49,0,0,1,70.2,103a5.25,5.25,0,0,1,2.56-.63,3.8,3.8,0,0,1,3,1.21V98.72Zm-3.57,10.8a3.15,3.15,0,0,0,0-4,2.42,2.42,0,0,0-1.82-.75,2.45,2.45,0,0,0-1.84.75,3.18,3.18,0,0,0,0,4,2.45,2.45,0,0,0,1.84.75A2.42,2.42,0,0,0,75.08,109.52Z"/><path class="cls-1" d="M92.84,99.5v13h-.78L83.2,101.21V112.5h-1v-13h.8l8.85,11.29V99.5Z"/><path class="cls-1" d="M103.12,103.65a3.56,3.56,0,0,1,1,2.7v6.15h-.89v-1.72a3.24,3.24,0,0,1-1.35,1.32,4.48,4.48,0,0,1-2.14.48,4,4,0,0,1-2.56-.76,2.48,2.48,0,0,1-.93-2,2.45,2.45,0,0,1,.86-2,4.18,4.18,0,0,1,2.76-.75h3.33v-.78a2.74,2.74,0,0,0-.74-2.07,3,3,0,0,0-2.14-.7,5.19,5.19,0,0,0-1.85.33,4.63,4.63,0,0,0-1.5.89l-.46-.67a5.14,5.14,0,0,1,1.74-1,6.41,6.41,0,0,1,2.14-.36A3.89,3.89,0,0,1,103.12,103.65Zm-1.24,7.61a3.38,3.38,0,0,0,1.28-1.62v-1.82H99.85a3.24,3.24,0,0,0-2.07.52,1.75,1.75,0,0,0-.64,1.43,1.8,1.8,0,0,0,.7,1.5,3.2,3.2,0,0,0,2,.55A3.65,3.65,0,0,0,101.88,111.26Z"/><path class="cls-1" d="M112.72,111.89a2.37,2.37,0,0,1-.88.51,3.38,3.38,0,0,1-1.1.18,2.41,2.41,0,0,1-2.64-2.64V103.6h-1.79v-.8h1.79v-2.11H109v2.11h3.08v.8H109v6.25a2.07,2.07,0,0,0,.45,1.44,1.78,1.78,0,0,0,1.35.49,2.12,2.12,0,0,0,1.5-.54Z"/><path class="cls-1" d="M115.23,100.23a.69.69,0,0,1-.22-.53.75.75,0,0,1,.76-.76.76.76,0,0,1,.54.21.71.71,0,0,1,.22.53.75.75,0,0,1-.76.76A.76.76,0,0,1,115.23,100.23Zm.08,2.57h.93v9.7h-.93Z"/><path class="cls-1" d="M127.94,102.8l-4.38,9.7h-1l-4.37-9.7h1l3.86,8.68,3.9-8.68Z"/><path class="cls-1" d="M137.88,107.88h-8.34a4,4,0,0,0,.58,2,3.61,3.61,0,0,0,1.45,1.37,4.46,4.46,0,0,0,2.08.48,4.4,4.4,0,0,0,1.75-.34,3.41,3.41,0,0,0,1.35-1l.54.62a4.07,4.07,0,0,1-1.59,1.17A5.55,5.55,0,0,1,131,112a4.72,4.72,0,0,1-1.77-1.75,5,5,0,0,1-.64-2.55,5.28,5.28,0,0,1,.6-2.53,4.48,4.48,0,0,1,4-2.39,4.6,4.6,0,0,1,2.37.62,4.56,4.56,0,0,1,1.66,1.74,5.23,5.23,0,0,1,.6,2.53ZM131.43,104a3.57,3.57,0,0,0-1.31,1.28,4.35,4.35,0,0,0-.56,1.87H137a3.9,3.9,0,0,0-.56-1.86,3.6,3.6,0,0,0-1.32-1.28,3.64,3.64,0,0,0-1.84-.46A3.77,3.77,0,0,0,131.43,104Z"/><path class="cls-1" d="M141,112.22a4.58,4.58,0,0,1-1.65-.89l.43-.74a4.8,4.8,0,0,0,1.53.83,5.61,5.61,0,0,0,2,.34,3.84,3.84,0,0,0,2.16-.48,1.53,1.53,0,0,0,.7-1.34,1.28,1.28,0,0,0-.38-1,2.39,2.39,0,0,0-.94-.52,15,15,0,0,0-1.54-.35,13.41,13.41,0,0,1-1.86-.45,2.94,2.94,0,0,1-1.21-.78,2.1,2.1,0,0,1-.5-1.48,2.33,2.33,0,0,1,1-1.91,4.32,4.32,0,0,1,2.72-.75,6.81,6.81,0,0,1,1.84.26,4.48,4.48,0,0,1,1.49.69l-.43.74a4.63,4.63,0,0,0-1.36-.65,5.45,5.45,0,0,0-1.56-.22,3.41,3.41,0,0,0-2,.5,1.55,1.55,0,0,0-.69,1.32,1.31,1.31,0,0,0,.39,1,2.5,2.5,0,0,0,1,.54c.38.12.91.24,1.59.38a13.77,13.77,0,0,1,1.83.44,2.78,2.78,0,0,1,1.18.75,2,2,0,0,1,.48,1.43,2.25,2.25,0,0,1-1,1.93,4.72,4.72,0,0,1-2.83.73A6.9,6.9,0,0,1,141,112.22Z"/><path class="cls-1" d="M6.86,112.44a1.34,1.34,0,0,1-.57.33,2.12,2.12,0,0,1-.71.12,1.67,1.67,0,0,1-1.26-.45,1.7,1.7,0,0,1-.45-1.26v-4.09H2.72v-.51H3.87v-1.37h.6v1.37h2v.51h-2v4a1.3,1.3,0,0,0,.3.93,1.12,1.12,0,0,0,.87.32,1.41,1.41,0,0,0,1-.35Z"/><path class="cls-1" d="M13.45,107.21a2.65,2.65,0,0,1,.68,2v3.66h-.59v-3.61a2.21,2.21,0,0,0-.54-1.61,2,2,0,0,0-1.49-.55,2.29,2.29,0,0,0-1.74.66,2.42,2.42,0,0,0-.64,1.77v3.34h-.6v-8.91h.6v3.95a2.37,2.37,0,0,1,1-1,3,3,0,0,1,1.5-.35A2.49,2.49,0,0,1,13.45,107.21Z"/><path class="cls-1" d="M21.91,109.85H16.52a2.67,2.67,0,0,0,.37,1.3,2.46,2.46,0,0,0,.95.89,2.9,2.9,0,0,0,1.33.31,2.87,2.87,0,0,0,1.14-.23,2.08,2.08,0,0,0,.87-.65l.35.4a2.67,2.67,0,0,1-1,.75,3.31,3.31,0,0,1-1.34.27,3.41,3.41,0,0,1-1.67-.41,3,3,0,0,1-1.14-1.13,3.2,3.2,0,0,1-.42-1.64,3.4,3.4,0,0,1,.39-1.64,2.89,2.89,0,0,1,1.08-1.14,3.13,3.13,0,0,1,3.06,0,2.82,2.82,0,0,1,1.07,1.12,3.39,3.39,0,0,1,.39,1.63Zm-4.16-2.5a2.12,2.12,0,0,0-.85.83,2.77,2.77,0,0,0-.37,1.2h4.8a2.45,2.45,0,0,0-.36-1.2,2.33,2.33,0,0,0-.85-.83,2.47,2.47,0,0,0-1.19-.3A2.33,2.33,0,0,0,17.75,107.35Z"/><path class="cls-1" d="M58.34,66.65H24a6,6,0,1,0,0,3H58.34ZM18.19,71.16a3,3,0,1,1,3-3A3,3,0,0,1,18.19,71.16Z"/><path class="cls-1" d="M135,62.19a6,6,0,0,0-5.79,4.5H94.86v3h34.38a6,6,0,1,0,5.78-7.5Zm0,9a3,3,0,1,1,3-3A3,3,0,0,1,135,71.16Z"/><path class="cls-1" d="M147,44a6,6,0,0,0-5.79,4.49H94.43l-18,17.95-18-17.95H11.77a6,6,0,1,0,0,3H57.29L74.36,68.56l-17,17,2.12,2.12,17-16.95,17,16.95,2.12-2.12-17-17L95.67,51.49h45.51A6,6,0,1,0,147,44ZM6,53a3,3,0,1,1,3-3A3,3,0,0,1,6,53Zm141,0a3,3,0,1,1,3-3A3,3,0,0,1,147,53Z"/><path class="cls-1" d="M76.83,53.57,56.27,33,76.83,12.47,97.38,33ZM60.51,33,76.83,49.33,93.14,33,76.83,16.71Z"/><polygon class="cls-1" points="94.2 21.62 76.83 4.24 59.45 21.62 57.33 19.5 76.83 0 96.32 19.5 94.2 21.62"/><circle class="cls-1" cx="76.83" cy="33.02" r="6.15"/></g></g></svg>