<?xml version="1.0" encoding="utf-8"?>
<!-- Generator: Adobe Illustrator 24.0.3, SVG Export Plug-In . SVG Version: 6.00 Build 0)  -->
<svg version="1.1" id="Layer_1" xmlns="http://www.w3.org/2000/svg" xmlns:xlink="http://www.w3.org/1999/xlink" x="0px" y="0px"
	 viewBox="0 0 600 600" style="enable-background:new 0 0 600 600;" xml:space="preserve">
<style type="text/css">
	.st0{fill:#54B5B5;}
	.st1{fill:#CC830E;}
	.st2{fill:#FFC600;}
	.st3{fill:#0D2A72;}
	.st4{fill:#A01077;}
</style>
<g>
	<g id="logo">
		<path class="st0" d="M23.12,334.82c10.79,40.55,40.13,69.58,76.82,69.58v-69.58L23.12,334.82z"/>
		<path class="st1" d="M95.21,195.69c-37.25,2.96-62.48,34.51-72.14,69.53c0,0,70.6,0,70.6,0c0,0,3.17,0,3.17,0c0.7,0,2.41,0,3.11,0
			V195.6C99.95,195.6,95.74,195.65,95.21,195.69z"/>
		<path class="st2" d="M102,265.21c34.38-1.07,63.88-29.91,74.76-69.61l-76.82,0v69.61C99.98,265.21,101.98,265.21,102,265.21z"/>
		<path class="st3" d="M23.31,334.16c-0.06,0.22-0.13,0.44-0.19,0.66c0.11,0,76.72,0,76.82,0v-69.61
			C62.25,267.21,33.2,298.93,23.31,334.16z"/>
		<path class="st4" d="M102,334.82c34.38-1.07,63.88-29.91,74.76-69.61l-76.82,0v69.61C99.98,334.82,101.98,334.83,102,334.82z"/>
		<path class="st0" d="M99.45,265.21h-5.78H23.07c-6,21.57-5.84,48.09,0.05,69.61c0.01-0.05,0.05-0.18,0.05-0.18
			c0.04-0.16,0.1-0.32,0.14-0.48c9.89-35.23,38.93-66.95,76.63-68.95H99.45z"/>
	</g>
	<g id="text">
		<g>
			<path d="M239.99,256.99v15.04h25.07v7.38h-25.07v18.8h-8.15v-48.75h34.54v7.52H239.99z"/>
			<path d="M273.77,253.92c0-2.86,2.09-4.87,4.94-4.87c2.99,0,5.08,2.02,5.08,4.87c0,2.72-2.09,4.74-5.08,4.74
				C275.86,258.66,273.77,256.64,273.77,253.92z M274.81,263.81h7.8v34.4h-7.8V263.81z"/>
			<path d="M314.44,298.21l-13.79-15.18v15.18h-7.8v-48.75h7.8v28.83l12.33-14.49h9.54l-14.42,16.51l16.51,17.9H314.44z"/>
			<path d="M362.49,263.81v34.4h-6.96l-0.07-4.6c-2.65,3.34-7.24,5.36-12.54,5.36c-10.1,0-17.06-7.38-17.06-17.97
				c0-10.59,6.96-17.97,17.06-17.97c5.36,0,9.89,2.02,12.54,5.36l0.07-4.6H362.49z M354.69,281.01c0-6.41-4.32-10.86-10.52-10.86
				s-10.52,4.46-10.52,10.86c0,6.41,4.32,10.86,10.52,10.86S354.69,287.42,354.69,281.01z"/>
			<path d="M440.69,249.46l-16.43,48.75h-8.98l-5.36-16.64l-6.27-19.08l-6.27,19.08l-5.43,16.64h-8.77l-16.64-48.75h8.71l7.45,23.54
				l4.87,15.18l12.33-38.72h7.38l12.47,38.51l4.87-14.97l7.38-23.54H440.69z"/>
			<path d="M441.04,281.01c0-10.31,7.17-17.97,18.39-17.97c11.14,0,18.32,7.66,18.32,17.97c0,10.31-7.17,17.97-18.32,17.97
				C448.21,298.98,441.04,291.32,441.04,281.01z M469.94,281.01c0-5.99-4.11-10.86-10.52-10.86c-6.48,0-10.59,4.87-10.59,10.86
				c0,5.99,4.11,10.86,10.59,10.86C465.83,291.88,469.94,287,469.94,281.01z"/>
			<path d="M511.86,266.11l-3.48,6.34c-1.95-1.32-3.69-1.88-5.78-1.88c-5.57,0-9.12,4.11-9.12,10.86v16.78h-7.8v-34.4h6.96
				l0.07,5.29c2.72-4.18,6.13-5.99,10.45-5.99C506.5,263.11,509.77,264.23,511.86,266.11z"/>
			<path d="M538.81,298.21l-13.79-15.18v15.18h-7.8v-48.75h7.8v28.83l12.33-14.49h9.54l-14.42,16.51l16.51,17.9H538.81z"/>
			<path d="M551,293.97l3.62-5.64c3.06,2.44,7.59,3.83,12.12,3.83c4.39,0,6.89-1.39,6.89-3.9c0-2.44-2.23-3.62-7.52-4.18
				c-8.98-0.84-14.07-4.6-14.07-10.59c0-6.27,5.99-10.52,14.9-10.52c5.22,0,9.82,1.32,13.65,3.97l-3.41,5.57
				c-3.06-1.95-6.34-2.92-9.89-2.92c-4.94,0-7.59,1.39-7.59,3.9c0,2.23,2.02,3.41,7.03,3.97c10.17,1.11,14.62,4.39,14.62,10.86
				c0,6.41-5.92,10.72-14.83,10.72C560.75,299.05,555.6,297.38,551,293.97z"/>
		</g>
		<g>
			<path d="M232.09,338.83c0-6.24,4.32-10.52,10.73-10.52c2.94,0,5.47,1.02,7.63,3.1l-2.77,2.98c-1.22-1.22-2.98-1.92-4.77-1.92
				c-3.67,0-6.24,2.61-6.24,6.36c0,3.79,2.53,6.36,6.24,6.36c1.96,0,3.75-0.73,4.98-2.08l2.81,3.06c-2.24,2.16-4.73,3.18-7.83,3.18
				C236.34,349.36,232.09,345.19,232.09,338.83z"/>
			<path d="M252.98,338.83c0-6.04,4.2-10.52,10.77-10.52c6.53,0,10.73,4.49,10.73,10.52c0,6.04-4.2,10.52-10.73,10.52
				C257.18,349.36,252.98,344.87,252.98,338.83z M269.9,338.83c0-3.51-2.41-6.36-6.16-6.36c-3.79,0-6.2,2.85-6.2,6.36
				c0,3.51,2.41,6.36,6.2,6.36C267.5,345.19,269.9,342.34,269.9,338.83z"/>
			<path d="M279.12,320.35h4.57v28.55h-4.57V320.35z"/>
			<path d="M289.68,320.35h4.57v28.55h-4.57V320.35z"/>
			<path d="M319.74,340.54h-16.11c0.37,2.94,2.81,4.81,6.36,4.81c2.28,0,4.57-0.82,5.79-2.08l2.77,2.69c-2,2.16-5.22,3.51-8.69,3.51
				c-6.65,0-10.93-4.2-10.93-10.65c0-6.24,4.2-10.48,10.44-10.48C316.48,328.35,320.4,333,319.74,340.54z M303.67,337h11.71
				c-0.33-2.86-2.53-4.69-5.87-4.69C306.33,332.31,304.25,334.02,303.67,337z"/>
			<path d="M323.01,338.83c0-6.24,4.32-10.52,10.73-10.52c2.94,0,5.47,1.02,7.63,3.1l-2.77,2.98c-1.22-1.22-2.98-1.92-4.77-1.92
				c-3.67,0-6.24,2.61-6.24,6.36c0,3.79,2.53,6.36,6.24,6.36c1.96,0,3.75-0.73,4.98-2.08l2.81,3.06c-2.24,2.16-4.73,3.18-7.83,3.18
				C327.25,349.36,323.01,345.19,323.01,338.83z"/>
			<path d="M359.02,348.21c-1.55,0.69-2.86,0.98-4.53,0.98c-4.16,0-6.61-2.41-6.61-7.22v-9.34h-3.79v-3.87h3.79v-5.26l4.53-0.49
				v5.75h5.79v3.87h-5.79v9.34c0,2.04,0.94,3.18,2.81,3.18c0.82,0,1.75-0.24,2.53-0.61L359.02,348.21z"/>
			<path d="M362.2,322.96c0-1.67,1.22-2.86,2.9-2.86c1.75,0,2.98,1.18,2.98,2.86c0,1.59-1.22,2.77-2.98,2.77
				C363.42,325.74,362.2,324.56,362.2,322.96z M362.81,328.76h4.57v20.15h-4.57V328.76z"/>
			<path d="M393.24,328.76l-8.52,20.15h-4.89l-8.57-20.15h4.98l2.81,6.89l3.22,8.52l3.26-8.52l2.81-6.89H393.24z"/>
			<path d="M415.71,340.54H399.6c0.37,2.94,2.81,4.81,6.36,4.81c2.28,0,4.57-0.82,5.79-2.08l2.77,2.69c-2,2.16-5.22,3.51-8.69,3.51
				c-6.65,0-10.93-4.2-10.93-10.65c0-6.24,4.2-10.48,10.44-10.48C412.45,328.35,416.37,333,415.71,340.54z M399.64,337h11.71
				c-0.33-2.86-2.53-4.69-5.87-4.69C402.29,332.31,400.21,334.02,399.64,337z"/>
		</g>
	</g>
</g>
</svg>
