<svg viewBox="0 0 78 44" fill="none" xmlns="http://www.w3.org/2000/svg">
  <path
    d="M38.193 5.924c-3.299 0-5.617 1.808-6.378 4.739l2.793.592c.45-1.89 1.609-2.85 3.473-2.85 1.864 0 2.88 1.13 2.88 3.075v1.665c-1.072-.986-2.4-1.497-3.953-1.497-1.552 0-2.793.424-3.779 1.241-1.016.848-1.521 1.864-1.521 3.075 0 2.624 2.114 4.315 5.25 4.315 1.75 0 3.13-.68 4.12-2.058v1.72h2.962v-8.436c0-3.64-2.226-5.586-5.842-5.586l-.005.005Zm2.763 10.07c-.93 1.354-2.089 2.033-3.442 2.033-1.609 0-2.65-.848-2.65-2.089 0-1.24 1.072-2.058 2.65-2.058 1.353 0 2.512.567 3.442 1.695V16v-.005ZM13.518 6.266h-3.05v13.686h3.05V6.266ZM11.99.312c-1.097 0-1.889.791-1.889 1.833 0 1.042.792 1.808 1.89 1.808 1.098 0 1.89-.792 1.89-1.808S13.031.312 11.99.312ZM6.036 2.37c.649 0 1.185.224 1.634.679l1.297-2.033C8.32.337 7.303 0 5.92 0 4.703 0 3.662.337 2.814 1.016 1.94 1.721 1.517 2.65 1.517 3.84c0 .817.168 1.609.536 2.426H0v2.569h2.17v11.117h3.075V8.835h3.442v-2.57H5.045c-.423-.816-.623-1.52-.623-2.113 0-1.129.705-1.777 1.609-1.777l.005-.005ZM27.699 16.704c-.506-.424-1.185-1.297-2.033-2.569l-1.384-2.144 5.868-5.73h-3.779l-5.98 6.036V.337h-3.049v19.61h3.05v-4.601l1.52-1.497 1.385 2.201c.93 1.44 1.833 2.482 2.68 3.105.818.623 1.865.93 3.075.93.48 0 .904-.03 1.272-.113l.03-2.706a2.49 2.49 0 0 1-.679.087c-.817 0-1.496-.225-1.976-.649ZM49.545 16.673a1.808 1.808 0 1 0 0 3.616 1.808 1.808 0 0 0 0-3.616ZM62.057 40.261c-.506-.424-1.185-1.297-2.033-2.568l-1.384-2.145 5.868-5.73H60.73l-5.98 6.036V23.89H51.7V43.5h3.05v-4.601l1.52-1.496 1.385 2.2c.93 1.44 1.833 2.483 2.68 3.106.818.623 1.865.929 3.075.929.48 0 .904-.03 1.272-.112l.025-2.707a2.49 2.49 0 0 1-.679.087c-.817 0-1.496-.225-1.976-.649l.005.005ZM45.634 29.599c-1.834 0-3.13.873-3.892 2.594v-2.37H38.78V43.51h3.05v-6.802c0-2.737 1.215-4.57 2.793-4.57 1.159 0 1.746.704 1.746 2.114 0 .199-.026.567-.112 1.128l2.793.281c.255-.735.368-1.44.368-2.114 0-2.4-1.609-3.953-3.78-3.953l-.004.006ZM28.756 29.486c-2.058 0-3.753.68-5.107 2.002-1.384 1.353-2.058 3.074-2.058 5.163 0 2.089.68 3.81 2.058 5.163 1.354 1.353 3.049 2.032 5.107 2.032 2.058 0 3.753-.679 5.107-2.032 1.353-1.353 2.032-3.074 2.032-5.163 0-2.089-.68-3.81-2.032-5.163-1.354-1.328-3.05-2.002-5.107-2.002Zm2.906 10.607c-.736.848-1.696 1.271-2.906 1.271-1.21 0-2.17-.423-2.88-1.271-.736-.848-1.098-2.002-1.098-3.442 0-2.906 1.578-4.683 3.978-4.683 2.4 0 3.978 1.833 3.978 4.683 0 1.44-.368 2.594-1.072 3.442ZM73.292 35.497l-1.578-.281c-1.696-.312-2.288-.705-2.288-1.752 0-1.047.96-1.665 2.625-1.665s2.762.792 3.13 2.345l2.737-.68c-.424-2.37-2.425-3.978-5.811-3.978s-5.73 1.553-5.73 4.009c0 1.466.506 2.482 1.522 3.105 1.016.623 1.89.904 3.36 1.16l1.578.254c1.496.312 2.058.68 2.058 1.665 0 1.216-1.072 1.864-2.65 1.864-2.257 0-3.473-.986-3.641-2.936l-2.88.424c.03 1.552.623 2.737 1.833 3.554 1.215.848 2.737 1.271 4.6 1.271 3.474 0 5.843-1.578 5.843-4.259 0-2.68-1.777-3.61-4.713-4.09l.005-.01ZM14.534 40.18l-2.768-10.357H8.717L5.98 40.18 3.187 29.823H0L4.203 43.51h3.36l2.681-9.733 2.707 9.733h3.33l4.202-13.686h-3.186L14.534 40.18Z"
    fill="#000"
  ></path>
</svg>
