<?xml version="1.0" standalone="no"?>
<!DOCTYPE svg PUBLIC "-//W3C//DTD SVG 20010904//EN"
 "http://www.w3.org/TR/2001/REC-SVG-20010904/DTD/svg10.dtd">
<svg version="1.0" xmlns="http://www.w3.org/2000/svg"
 width="300.000000pt" height="300.000000pt" viewBox="0 0 300.000000 300.000000"
 preserveAspectRatio="xMidYMid meet">
<metadata>
Created by potrace 1.14, written by Peter Selinger 2001-2017
</metadata>
<g transform="translate(0.000000,300.000000) scale(0.100000,-0.100000)"
fill="#000000" stroke="none">
<path d="M0 1500 l0 -1500 1500 0 1500 0 0 1500 0 1500 -1500 0 -1500 0 0
-1500z m1790 1021 c31 -11 71 -33 89 -49 l33 -28 -65 -102 -66 -102 -50 31
c-89 56 -200 41 -253 -33 -20 -29 -23 -45 -23 -123 0 -77 4 -98 27 -147 l27
-58 185 0 186 0 0 -135 0 -135 -175 0 -175 0 0 -570 0 -570 -160 0 -160 0 0
570 0 570 -110 0 -110 0 0 135 0 135 104 0 104 0 -21 58 c-17 46 -21 80 -22
177 0 111 2 124 28 176 49 101 175 193 298 219 74 15 246 5 309 -19z"/>
</g>
</svg>
